# xmcd
#
# Track frame offsets:
# 150
# 17350
# 33660
# 54485
# 77155
# 91702
# 123780
# 139167
# 153952
# 168917
# 182930
# 198455
#
# Disc length: 2885 seconds
#
#
# Revision: 0
# Processed by: cddbd v1.5.1PL0 Copyright (c) Steve Scherf et al.
# Submitted via: FreeRIP 2.941 
#
DISCID=900b430c
DTITLE=Bernice Johnson Reagon - Give Your Hands to Struggle
DYEAR=1997
DGENRE=Folk
TTITLE0=We've Come A Long Way To Be Together
TTITLE1=There's A New World Coming
TTITLE2=Room in the Circle
TTITLE3=Old Ship of Zion
TTITLE4=Why Did They Take Us Away?
TTITLE5=In My Hands
TTITLE6=John Little
TTITLE7=They Are Falling All Around Me
TTITLE8=Freedom in the Air
TTITLE9=I Won't Crumble With You If You Fall
TTITLE10=Had, Took, Misled
TTITLE11=Give Your Hands to Struggle
EXTD=Smithsonian Folkway Records
EXTT0=
EXTT1=
EXTT2=
EXTT3=
EXTT4=
EXTT5=
EXTT6=
EXTT7=
EXTT8=
EXTT9=
EXTT10=
EXTT11=
PLAYORDER=
